<svg width="240" height="60" viewBox="0 0 240 60" fill="none" xmlns="http://www.w3.org/2000/svg">
<circle cx="195" cy="15" r="14.5" fill="#3CDB4E" fill-opacity="0.8" stroke="#3CDB4E"/>
<path d="M198.425 18.7324H191.575L190.036 23H187.812L194.057 6.64844H195.943L202.199 23H199.986L198.425 18.7324ZM192.226 16.958H197.785L195 9.31006L192.226 16.958Z" fill="#25FD3D"/>
<circle cx="75" cy="15" r="14.5" fill="#ECDB33" fill-opacity="0.8" stroke="#ECDB33"/>
<path d="M74.9775 14.8579L79.2451 6.64844H81.6934L76.0557 16.9019V23H73.8994V16.9019L68.2617 6.64844H70.7324L74.9775 14.8579Z" fill="#FFEA17"/>
<circle cx="135" cy="45" r="14.5" fill="#40CCD0" fill-opacity="0.8" stroke="#40CCD0"/>
<path d="M135.022 42.915L138.942 36.6484H141.48L136.314 44.7568L141.604 53H139.043L135.022 46.6211L130.979 53H128.43L133.731 44.7568L128.554 36.6484H131.081L135.022 42.915Z" fill="#37F4FA"/>
<circle cx="15" cy="45" r="14.5" fill="#D04242" fill-opacity="0.8" stroke="#D04242"/>
<path d="M9.73291 53V36.6484H15.0786C16.853 36.6484 18.1857 37.0153 19.0767 37.749C19.9751 38.4827 20.4243 39.5684 20.4243 41.0059C20.4243 41.7695 20.2072 42.4471 19.7729 43.0386C19.3387 43.6226 18.7472 44.0755 17.9985 44.3975C18.882 44.6445 19.5783 45.1162 20.0874 45.8125C20.604 46.5013 20.8623 47.3249 20.8623 48.2832C20.8623 49.7507 20.3869 50.9036 19.436 51.7422C18.4852 52.5807 17.1413 53 15.4043 53H9.73291ZM11.8892 45.3521V51.2368H15.4492C16.4525 51.2368 17.2424 50.9785 17.8188 50.4619C18.4028 49.9378 18.6948 49.2191 18.6948 48.3057C18.6948 46.3366 17.6242 45.3521 15.4829 45.3521H11.8892ZM11.8892 43.6226H15.146C16.0894 43.6226 16.8418 43.3867 17.4033 42.915C17.9723 42.4434 18.2568 41.8032 18.2568 40.9946C18.2568 40.0962 17.9948 39.4448 17.4707 39.0405C16.9466 38.6287 16.1493 38.4229 15.0786 38.4229H11.8892V43.6226Z" fill="#DB0505"/>
</svg>
